# xmcd
# 
# Track frame offsets:
#     150
#     16659
#     30923
#     44215
# 
# Disc length: 676
# 
# Revision: 0
# Processed by: cddbd v1.5.2PL0 Copyright (c) Steve Scherf et al.
# Submitted via: BonkEnc v1.0.8
# 
DISCID=2502a204
DTITLE=Franz Ferdinand - Do You Want To
DYEAR=2005
DGENRE=Rock
TTITLE0=Do You Want To
TTITLE1=Your Diary
TTITLE2=Fabulously Lazy
TTITLE3=Get Away
EXTD=
EXTT0=
EXTT1=
EXTT2=
EXTT3=
PLAYORDER=
